:FULLY-SPECIFIED
:FORCE-ALL-JOINTS-BE-3DOF
:DEGREES
68
root 5.92412 16.7711 -28.0847 11.4046 2.86418 -3.87627
lfemur -36.1931 15.5729 -17.9311
ltibia 52.6961 -0 0
lfoot -21.5163 -9.99688 0.0113168
ltoes 30.7935 -0 0
rfemur -17.4059 0.0435081 21.9174
rtibia 30.2031 -0 0
rfoot -26.2 -18.4822 -0.00517279
rtoes -10.1675 0 0
lowerback -3.87537 2.52174 3.19005
upperback -1.52469 3.24838 -0.170219
thorax 0.78944 1.61881 -1.80947
lowerneck -9.99341 -2.42733 2.30217
upperneck -5.62846 -3.39895 1.97064
head -0.107703 -1.71905 0.133863
lclavicle 0 0 0
lhumerus -40.5462 -11.5558 93.7474
lradius 43.9587 -0 0
lwrist 7.95422 0 0
lhand -13.4675 1.86966 0.00725435
lfingers 0 -0 0
lthumb 12.642 31.4582 0.00516166
rclavicle 0 0 0
rhumerus -38.9507 2.27144 -91.8687
rradius 42.074 -0 0
rwrist 8.5333 0 0
rhand -25.1715 -21.6643 -0.000435921
rfingers 0 -0 0
rthumb 1.34591 -51.6398 -0.000419823
69
root 5.93472 16.7716 -28.0674 11.5239 2.91739 -3.99557
lfemur -36.9069 15.8746 -17.7832
ltibia 53.0429 -0 0
lfoot -21.3488 -9.35166 0.00943049
ltoes 29.9424 -0 0
rfemur -17.3988 0.178558 22.0115
rtibia 30.085 -0 0
rfoot -25.9442 -18.6753 -0.00431064
rtoes -10.7956 0 0
lowerback -3.88801 2.57991 3.19203
upperback -1.56266 3.32574 -0.129924
thorax 0.759567 1.65671 -1.76574
lowerneck -10.0212 -2.45792 2.36816
upperneck -5.6881 -3.44594 1.92089
head -0.123934 -1.74457 0.107134
lclavicle 0 0 0
lhumerus -40.5923 -11.1478 93.5762
lradius 43.9879 -0 0
lwrist 8.04359 0 0
lhand -14.0129 1.74264 0.0060452
lfingers 0 -0 0
lthumb 12.1162 31.3645 0.00430132
rclavicle 0 0 0
rhumerus -38.752 2.59491 -91.814
rradius 42.0341 -0 0
rwrist 8.84999 0 0
rhand -25.2132 -21.5645 -0.000363267
rfingers 0 -0 0
rthumb 1.30562 -51.5403 -0.000349852
70
root 5.94532 16.772 -28.0502 11.643 2.97085 -4.11476
lfemur -37.6209 16.1781 -17.6391
ltibia 53.3897 -0 0
lfoot -21.1813 -8.70646 0.00565804
ltoes 29.0912 -0 0
rfemur -17.3916 0.313595 22.1056
rtibia 29.9668 -0 0
rfoot -25.6884 -18.8684 -0.00258636
rtoes -11.4238 0 0
lowerback -3.90065 2.63808 3.194
upperback -1.60059 3.40313 -0.0896781
thorax 0.729722 1.69462 -1.72204
lowerneck -10.0491 -2.48848 2.43416
upperneck -5.74771 -3.49299 1.87119
head -0.140153 -1.7701 0.0804127
lclavicle 0 0 0
lhumerus -40.6396 -10.74 93.4048
lradius 44.0171 -0 0
lwrist 8.13296 0 0
lhand -14.5583 1.61563 0.003627
lfingers 0 -0 0
lthumb 11.5905 31.2707 0.00258072
rclavicle 0 0 0
rhumerus -38.5529 2.91819 -91.7581
rradius 41.9943 -0 0
rwrist 9.16668 0 0
rhand -25.255 -21.4648 -0.00021796
rfingers 0 -0 0
rthumb 1.26533 -51.4408 -0.000209911
71
root 5.95592 16.7725 -28.0329 11.762 3.02456 -4.23384
lfemur -38.3353 16.4833 -17.4987
ltibia 53.7365 0 0
lfoot -21.0139 -8.06127 0
ltoes 28.2401 0 0
rfemur -17.3841 0.448621 22.1998
rtibia 29.8487 0 0
rfoot -25.4326 -19.0615 0
rtoes -12.0519 0 0
lowerback -3.91329 2.69625 3.19595
upperback -1.63846 3.48055 -0.04948
thorax 0.699906 1.73256 -1.67835
lowerneck -10.077 -2.51901 2.50017
upperneck -5.80727 -3.54008 1.82153
head -0.15636 -1.79564 0.0536981
lclavicle -1.10325e-14 -1.41137e-14 0
lhumerus -40.688 -10.3323 93.2334
lradius 44.0463 0 0
lwrist 8.22233 0 0
lhand -15.1037 1.48866 0
lfingers 7.12502 0 0
lthumb 11.0647 31.177 0
rclavicle -1.10325e-14 -1.41137e-14 0
rhumerus -38.3535 3.24127 -91.7011
rradius 41.9544 0 0
rwrist 9.48337 0 0
rhand -25.2967 -21.365 0
rfingers 7.12502 0 0
rthumb 1.22504 -51.3413 0
